HIERARCHY
ROOT Hips
{
    OFFSET 10.467214584350586 73.34869003295898 -15.984508514404297
    CHANNELS 6 Xposition Yposition Zposition Zrotation Xrotation Yrotation
    JOINT RightUpLeg
    {
        OFFSET -10.467214584350586 0.0 0.0
        CHANNELS 3 Zrotation Xrotation Yrotation
        JOINT RightLeg
        {
            OFFSET 0.0 -33.387420654296875 0.0
            CHANNELS 3 Zrotation Xrotation Yrotation
            JOINT RightFoot
            {
                OFFSET 0.0 -39.96126937866211 0.0
                CHANNELS 3 Zrotation Xrotation Yrotation
                End Site
                {
                    OFFSET 0.0 0.0 15.984508514404297
                }
            }
        }
    }
    JOINT LeftUpLeg
    {
        OFFSET 10.467214584350586 0.0 0.0
        CHANNELS 3 Zrotation Xrotation Yrotation
        JOINT LeftLeg
        {
            OFFSET 0.0 -33.387420654296875 0.0
            CHANNELS 3 Zrotation Xrotation Yrotation
            JOINT LeftFoot
            {
                OFFSET 0.0 -39.96126937866211 0.0
                CHANNELS 3 Zrotation Xrotation Yrotation
                End Site
                {
                    OFFSET 0.0 0.0 15.984508514404297
                }
            }
        }
    }
    JOINT Spine
    {
        OFFSET 0.0 21.663711547851562 0.0
        CHANNELS 3 Zrotation Xrotation Yrotation
        JOINT Spine3
        {
            OFFSET 0.0 24.632129669189453 0.0
            CHANNELS 3 Zrotation Xrotation Yrotation
            JOINT Neck
            {
                OFFSET 0.0 10.290008544921875 0.0
                CHANNELS 3 Zrotation Xrotation Yrotation
                End Site
                {
                    OFFSET 0.0 4.116003513336182 0.0
                }
            }
            JOINT LeftArm
            {
                OFFSET 12.711906433105469 0.0 0.0
                CHANNELS 3 Zrotation Xrotation Yrotation
                JOINT LeftForeArm
                {
                    OFFSET 23.83362579345703 0.0 0.0
                    CHANNELS 3 Zrotation Xrotation Yrotation
                    JOINT LeftHand
                    {
                        OFFSET 18.33049774169922 0.0 0.0
                        CHANNELS 3 Zrotation Xrotation Yrotation
                        End Site
                        {
                            OFFSET 7.332199573516846 0.0 0.0
                        }
                    }
                }
            }
            JOINT RightArm
            {
                OFFSET -12.711906433105469 0.0 0.0
                CHANNELS 3 Zrotation Xrotation Yrotation
                JOINT RightForeArm
                {
                    OFFSET -23.83362579345703 0.0 0.0
                    CHANNELS 3 Zrotation Xrotation Yrotation
                    JOINT RightHand
                    {
                        OFFSET -18.33049774169922 0.0 0.0
                        CHANNELS 3 Zrotation Xrotation Yrotation
                        End Site
                        {
                            OFFSET -7.332199573516846 0.0 0.0
                        }
                    }
                }
            }
        }
    }
}
MOTION
Frames: 10
Frame Time: 0.03333333333333333
0.0003662775852717459 87.02702331542969 -0.00036140443990007043 4.454097357701701 5.169105027103229 3.84876100723729 -13.058322980419963 -19.877746933597205 -3.651440504554709 7.152250527179779 50.87689089048471 2.200639933411337 9.939233379573492e-17 0.0 0.0 4.723470805898419 -39.34321599110313 4.562970951290421 -0.3963285354877114 47.22732470733112 -3.781874011680545 0.0 0.0 2.9817700138720465e-16 4.104638808089346 8.186285333276775 -0.935962712442476 4.7423053257843976e-07 9.370575130647366e-07 5.6106527461367985 -7.2794401870335514 5.374929472687923 -171.10076879354568 129.99266746295905 61.19676317024584 -151.30762353562605 2.8743685272226763e-06 5.503508635224885e-07 89.5443678314221 3.1805546814635168e-15 3.1805546814635168e-15 -8.827812596100317e-32 -119.83046189967204 2.8669983812227313 -179.18064302272055 -6.106053748338152e-06 -1.0835315325961523e-06 -34.59421983552723 6.162324695335563e-15 1.7103886904944364e-31 3.1805546814635164e-15
0.0004057215992361307 87.02706909179688 -0.00037099781911820173 2.9211436548541565 5.181147952827005 3.1083643812375303 -11.001503225037645 -20.40149301879921 -3.368374891752498 7.708786528590889 50.850026035594766 0.9823003864578095 2.4848083448933722e-17 3.3001923920357937e-35 1.5219451112471904e-16 8.496213135175621 -39.644483896005426 6.378337108907755 -3.017829847213206 47.80637469683041 -3.424478245323075 0.0 0.0 3.975693351829396e-16 4.9637812278129605 6.891034135985311 -0.7703167766020446 9.835508605833813e-07 1.0685301953113934e-06 4.507807716688124 -3.4936950946448064 6.897275572186312 -173.5133203516863 136.15827156510736 62.53663406251027 -155.74773985744562 7.294107924267721e-07 -1.233431168356854e-07 88.67055099658579 6.3611093629270335e-15 3.1805546814635168e-15 -1.7655625192200634e-31 -118.53277402820794 3.2978534337348178 -177.94601318270142 -8.160006614262609e-07 3.0766945094061942e-06 -35.88211988783241 7.951386703658792e-16 3.1805546814635168e-15 -3.1805546814635168e-15
0.00039090769132599235 87.02714538574219 -0.00039220612961798906 2.2395927117606096 4.7230692374026 2.378721442436349 -10.557311406681348 -20.604999125051467 -3.6072132132161716 8.361468315602686 51.5645714900842 0.8903837971352658 9.939233379573492e-17 -2.155227684594804e-35 -2.484808344893373e-17 10.165819979686185 -39.14119616149157 6.7318202450899 -4.063853027635629 48.0979796001252 -3.077095712641421 0.0 0.0 1.9878466759146977e-16 5.054467793817722 6.456120513457732 -0.6167442286509769 -1.7776293027482613e-08 4.699921406158455e-07 4.844719079922696 0.07584672055189648 9.51359089576318 -175.80167221462605 147.18405893262627 65.33917515818246 -168.48119615819306 -1.5739757608814331e-06 4.104093186758285e-06 84.70140809061714 3.1805546814635168e-15 3.1805546814635164e-15 -1.2722218725854067e-14 -118.36653381840206 7.33659085736939 -177.17711935942472 1.5437652404551022e-06 -1.1438758539533654e-06 -35.46098941965849 2.3854160110976384e-15 -6.620859447075238e-32 -3.1805546814635176e-15
0.00035993210622109473 87.02734375 -0.0004599485546350479 1.2062910993255787 4.048918773838833 1.324041859399345 -9.092701917905803 -20.602858221807935 -3.529196440549639 6.718761275215255 52.28116174903667 2.0405062288161075 7.454425034680117e-17 -3.882513038895893e-19 1.9257264672923636e-16 12.500930545223909 -38.45081940449651 7.324311798281603 -5.841041440105922 47.951883389787604 -2.436280484717952 0.0 0.0 -9.93923337957349e-17 5.465513963293076 6.640466006349463 -0.5366247230681647 2.864490117185462e-07 -9.79060761351535e-07 5.167395318824835 4.158603969794767 10.993850848030847 -178.30110047220467 155.29258255838377 64.96231269416711 -178.44417538151336 -3.18974058283641e-07 -9.136412297010713e-08 80.91556687116987 0.0 0.0 0.0 -120.35796089268844 5.2970677822169465 -178.0253977517927 7.329126228759704e-07 -1.7783740698109598e-06 -35.802624276489425 -1.1927080055488188e-15 0.0 0.0
0.00024135378771461546 87.02737426757812 -0.00044795870780944824 0.4516222807995509 3.5210984751406587 0.8891297589487343 -8.754110339770508 -20.528707007785062 -3.667203542269348 7.1952717865066615 53.5246866056115 2.00692638620223 -1.599583047160206e-36 7.765026077791789e-19 2.3605679276487037e-16 14.291463812936827 -37.9426439141229 7.8990209133610225 -8.093088710289491 48.36795544241506 -1.421711503270342 -3.975693351829395e-16 1.5933833511628747e-15 -4.969616689786743e-17 6.609684603286453 7.019081000598832 -0.6150851339986837 3.601285775694838e-07 4.815640900138728e-07 5.645574075961403 5.595221950428573 11.038281131005371 -179.90889604930172 149.97390724550854 59.89253222081642 -171.3090189476136 2.7088566996992864e-06 -3.1730962336553684e-06 80.14610338765877 0.0 0.0 6.361109362927035e-15 -121.45884902394482 9.478933081062223 175.71839843414423 1.3249347687814346e-06 4.438854173403028e-07 -36.34549100034848 -1.2722218725854067e-14 0.0 0.0
0.00015353834896814078 87.02747344970703 -0.0004087440320290625 0.8129239258623483 3.6366567149795026 -0.6388163279452562 -9.150102170310555 -21.113111269211906 -3.758524424857615 5.94952630150433 53.60828631579866 2.9659495238958953 3.493048449681649e-17 6.361109362927033e-15 -1.0913501495271429e-17 14.654298356414039 -36.90636350597988 8.202157014007378 -9.837994844990993 47.50376538961357 -0.6758984478543053 0.0 -1.5530052155583578e-18 0.0 6.913674098906208 6.959758206010224 -0.6982061392741838 -3.1577056429891704e-07 1.374862189799681e-06 6.110507504819844 6.574468514400035 11.498126044308613 177.40586183716945 147.12655354432565 61.37504015398204 -171.95247485076194 -1.5028689176924395e-06 2.930623772934795e-07 76.37538355022645 8.827812596100317e-32 1.5902773407317582e-15 -6.361109362927033e-15 -122.14741417237411 12.071486547199319 171.04883749191518 -1.833229497206114e-06 -2.673949986526841e-06 -36.672960634723296 -1.590277340731758e-15 0.0 0.0
9.823388245422393e-05 87.02758026123047 -0.0004122510435990989 0.6510912825579864 4.557136801598244 -2.100807174356062 -9.291219682969432 -22.27835763499407 -4.066259834776296 5.938792647886066 52.751196022284105 3.0891662327897476 -2.484808344893372e-17 -6.361109362927033e-15 6.833222948456774e-17 15.147463679553677 -36.17560588669683 8.27801823822633 -9.996356110975851 46.75936462939515 -0.8312430346177212 3.975693351829397e-16 3.4483642953516864e-34 9.939233379573492e-17 7.354184251239311 7.2578723763780815 -0.76580307811684 -1.525039145381358e-07 -2.721300348105656e-07 4.782352072722654 8.233857575533168 10.454753945491804 177.73985075850447 140.77089413897716 59.4799227815687 -169.54709304577463 -9.281002571935687e-07 7.244472584299017e-06 81.7470167267239 -3.1805546814635168e-15 -6.3611093629270335e-15 -1.7655625192200634e-31 -121.63596905892037 14.965208332908327 168.69861119247952 -3.0448121938312825e-06 -5.024178642126557e-06 -41.79936757433193 0.0 0.0 0.0
-2.4811242838040926e-05 87.02755737304688 -0.00043963355710729957 1.1995326660742593 5.753116520358936 -4.553772108652489 -10.361882784488719 -24.569612186129206 -4.7158773679471855 6.247342700694622 53.42642884886928 3.170313540073739 1.987846675914698e-16 -2.586273221513765e-34 -1.4908850069360235e-16 15.795069604455321 -36.03060663408421 8.934086507411589 -10.236325788071325 46.717646843779995 -1.3214092412868688 -3.975693351829396e-16 0.0 0.0 7.215060247621603 7.811469159601017 -0.8692032497666051 4.216770404267871e-07 7.59795570856788e-07 5.393047335846242 9.943781142328758 8.089867321104565 176.6486010653534 136.70387054493895 62.263779304122174 -173.41795131394002 -1.5401281464954233e-06 1.1705179044194194e-06 84.03653692990547 3.972515668245143e-31 7.156248033292914e-15 -6.3611093629270335e-15 -121.77379703303224 17.981537672984675 168.0117748814158 3.817509590619709e-06 -7.139733251770671e-07 -54.5572133624969 0.0 -3.1805546814635176e-15 0.0
-6.443024176405743e-05 87.02769470214844 -0.0004726145416498184 0.7156270909436251 4.612995898718119 -7.225019437405004 -9.747203152673686 -23.989764631650203 -4.375875253833256 5.2188599909823195 52.60308314844721 3.5838365824672387 4.969616689786745e-17 4.202693984959868e-34 9.690752545084152e-16 16.539026459076695 -32.60885105872041 8.589649909616618 -10.695123585129235 46.556238026752666 -1.7750823836547804 0.0 0.0 1.987846675914698e-16 8.488152034061883 8.585292655902986 -1.1398727268386026 1.201214167098791e-07 -4.508059189390548e-07 4.715424817013345 9.033877652511556 7.9241248662956645 176.215862580246 132.91434074260144 57.88034448430734 -174.40096019875318 1.6462849191024724e-06 -9.346756050039114e-07 80.81427486111338 2.2069531490250793e-32 -3.975693351829396e-16 6.3611093629270335e-15 -124.00828455548466 20.254584204399105 166.6732522953372 1.6728086450273981e-06 -8.552877480225524e-07 -61.693499185906816 3.1805546814635168e-15 3.1805546814635168e-15 -8.827812596100317e-32
-0.0002846623829100281 87.02772521972656 -0.0005214515258558095 1.9566365610128778 7.889361731419017 -8.952657215610975 -11.006998370314898 -28.520643378415812 -5.488843979827219 4.571786625911141 50.672782047154236 4.19020882510749 4.969616689786745e-16 2.411160972140437e-33 5.559758671698921e-16 15.13738556170376 -34.56579102803816 8.521245184272512 -8.910770777642028 44.979548215852056 -2.2817884329900173 1.5902773407317584e-15 -4.9696166897867443e-17 4.969616689786745e-16 8.351631755721803 8.153264404846048 -1.1409456861771 5.573861443553138e-07 9.375647927836737e-07 3.228380023699074 9.630077499248687 5.590069690611527 176.70413492264802 133.44611478298035 54.899010503605574 -179.74992880536695 1.8174978028033077e-06 -9.188524288220278e-07 78.35384274718619 0.0 9.93923337957349e-17 0.0 -127.48400681003704 20.952896037471934 168.59345618254434 -2.529548378700655e-06 8.712930311967874e-07 -74.89349990825559 0.0 -6.3611093629270335e-15 0.0
